HIERARCHY
ROOT SpineBase
{
  OFFSET 0.000000 0.000000 0.000000
  CHANNELS 6 Xposition Yposition Zposition Zrotation Xrotation Yrotation
  JOINT SpineMid
  {
    OFFSET 0.000000 32.714102 -0.000000
    CHANNELS 3 Zrotation Xrotation Yrotation
    JOINT SpineShoulder
    {
      OFFSET -0.100431 24.478220 -0.809352
      CHANNELS 3 Zrotation Xrotation Yrotation
      JOINT Neck
      {
        OFFSET -0.082079 8.133727 -0.598543
        CHANNELS 3 Zrotation Xrotation Yrotation
        JOINT Head
        {
          OFFSET 2.171693 11.739350 3.897606
          CHANNELS 3 Zrotation Xrotation Yrotation
          End Site
          {
            OFFSET 0 0 0
          }
        }
      }
      JOINT ShoulderLeft
      {
        OFFSET -7.452100 -4.546356 -1.623621
        CHANNELS 3 Zrotation Xrotation Yrotation
        JOINT ElbowLeft
        {
          OFFSET -10.097748 -17.298746 16.616923
          CHANNELS 3 Zrotation Xrotation Yrotation
          JOINT WristLeft
          {
            OFFSET 1.016674 -22.899331 2.317755
            CHANNELS 3 Zrotation Xrotation Yrotation
            JOINT HandLeft
            {
              OFFSET 1.560781 -5.284234 6.988795
              CHANNELS 3 Zrotation Xrotation Yrotation
              JOINT HandTipLeft
              {
                OFFSET -0.409340 -3.917922 -0.311767
                CHANNELS 3 Zrotation Xrotation Yrotation
                End Site
                {
                  OFFSET 0 0 0
                }
              }
              JOINT ThumbLeft
              {
                OFFSET -0.445533 2.966309 -1.445083
                CHANNELS 3 Zrotation Xrotation Yrotation
                End Site
                {
                  OFFSET 0 0 0
                }
              }
            }
          }
        }
      }
      JOINT ShoulderRight
      {
        OFFSET 8.872634 -6.363260 -12.642823
        CHANNELS 3 Zrotation Xrotation Yrotation
        JOINT ElbowRight
        {
          OFFSET 4.940670 -27.400757 -2.005152
          CHANNELS 3 Zrotation Xrotation Yrotation
          JOINT WristRight
          {
            OFFSET 3.727535 -20.275534 4.032191
            CHANNELS 3 Zrotation Xrotation Yrotation
            JOINT HandRight
            {
              OFFSET -0.464826 -4.436946 2.344971
              CHANNELS 3 Zrotation Xrotation Yrotation
              JOINT HandTipRight
              {
                OFFSET 0.210390 -7.062123 0.259345
                CHANNELS 3 Zrotation Xrotation Yrotation
                End Site
                {
                  OFFSET 0 0 0
                }
              }
              JOINT ThumbRight
              {
                OFFSET -3.433921 0.949062 -1.448895
                CHANNELS 3 Zrotation Xrotation Yrotation
                End Site
                {
                  OFFSET 0 0 0
                }
              }
            }
          }
        }
      }
    }
  }
  JOINT HipLeft
  {
    OFFSET -5.971727 0.922296 -0.113979
    CHANNELS 3 Zrotation Xrotation Yrotation
    JOINT KneeLeft
    {
      OFFSET -5.986533 -32.780967 0.216136
      CHANNELS 3 Zrotation Xrotation Yrotation
      JOINT AnkleLeft
      {
        OFFSET -2.024424 -32.290761 2.555039
        CHANNELS 3 Zrotation Xrotation Yrotation
        JOINT FootLeft
        {
          OFFSET 0.765095 9.141197 -3.486084
          CHANNELS 3 Zrotation Xrotation Yrotation
          End Site
          {
            OFFSET 0 0 0
          }
        }
      }
    }
  }
  JOINT HipRight
  {
    OFFSET 4.793572 2.360841 -6.421337
    CHANNELS 3 Zrotation Xrotation Yrotation
    JOINT KneeRight
    {
      OFFSET -3.201571 -24.919286 -5.475049
      CHANNELS 3 Zrotation Xrotation Yrotation
      JOINT AnkleRight
      {
        OFFSET -2.118637 -31.402464 -2.406697
        CHANNELS 3 Zrotation Xrotation Yrotation
        JOINT FootRight
        {
          OFFSET 0.268627 -5.751485 1.667604
          CHANNELS 3 Zrotation Xrotation Yrotation
          End Site
          {
            OFFSET 0 0 0
          }
        }
      }
    }
  }
}
MOTION
Frames: 10
Frame Time: 0.033333
43.130912 64.351742 240.672995 0.000000 -0.000000 30.365916 0.000000 0.000000 -30.365916 -0.000000 0.000000 0.000000 -0.000000 0.000000 0.000000 0.000000 0.000000 0.000000 -0.000000 0.000000 0.000000 -0.000000 0.000000 0.000000 -0.000000 0.000000 0.000000 -0.000000 0.000000 0.000000 0.000000 0.000000 0.000000 0.000000 0.000000 0.000000 -0.000000 0.000000 0.000000 -0.000000 0.000000 0.000000 -0.000000 0.000000 0.000000 -0.000000 0.000000 0.000000 0.000000 0.000000 0.000000 0.000000 0.000000 0.000000 0.000000 0.000000 -30.365916 -0.000000 0.000000 0.000000 -0.000000 0.000000 0.000000 0.000000 0.000000 0.000000 0.000000 0.000000 -30.365916 -0.000000 0.000000 0.000000 -0.000000 0.000000 0.000000 0.000000 0.000000 0.000000
43.142494 64.365920 240.732716 0.009620 -0.041118 30.453337 0.012547 0.040322 -30.453338 -0.000000 0.000000 0.000000 -0.000000 0.000000 0.000000 0.000000 0.000000 0.000000 3.468982 2.643095 1.780907 -4.324183 -4.395335 -2.141186 -2.876225 15.634741 0.101507 3.655232 -13.716969 1.031009 0.000000 0.000000 0.000000 0.000000 0.000000 0.000000 -0.000000 0.000000 0.000000 -0.000000 0.000000 0.000000 0.889359 -2.084613 0.698482 -2.038440 -0.247726 -0.759842 0.000000 0.000000 0.000000 0.000000 0.000000 0.000000 0.012547 0.040322 -30.453338 -0.000000 0.000000 0.000000 -1.161515 3.918953 -0.740386 0.000000 0.000000 0.000000 0.012547 0.040322 -30.453338 -0.000000 0.000000 0.000000 1.068339 -0.843697 0.277513 0.000000 0.000000 0.000000
43.155229 64.383228 240.790600 0.017560 -0.079181 30.549318 0.025124 0.077115 -30.549323 -0.000000 0.000000 0.000000 -0.000000 0.000000 0.000000 0.000000 0.000000 0.000000 6.326325 4.938681 3.157334 -8.034717 -7.744385 -4.113031 -5.870294 28.880295 1.160091 7.258415 -25.516583 2.726352 0.000000 0.000000 0.000000 0.000000 0.000000 0.000000 -0.000000 0.000000 0.000000 0.454042 -1.112802 -0.109592 1.218784 -2.481831 1.378183 -3.763929 -0.595759 -1.335452 0.000000 0.000000 0.000000 0.000000 0.000000 0.000000 0.025124 0.077115 -30.549323 -0.000000 0.000000 0.000000 -2.164996 7.374564 -1.334926 0.000000 0.000000 0.000000 0.025124 0.077115 -30.549323 0.324300 -1.028084 0.047461 0.720226 1.201391 0.248702 0.000000 0.000000 0.000000
43.169117 64.403667 240.846648 0.023819 -0.114196 30.653813 0.037732 0.110383 -30.653826 -0.000000 0.000000 0.000000 -0.000000 0.000000 0.000000 0.000000 0.000000 0.000000 8.646788 6.874682 4.210728 -11.121585 -10.235167 -5.844256 -8.795720 38.802008 2.832586 10.519588 -34.403085 4.688754 0.000000 0.000000 0.000000 0.000000 0.000000 0.000000 0.733637 -0.586955 -0.155644 -0.268405 -0.875137 -0.011743 1.896914 -3.170822 1.912862 -5.196659 -0.980415 -1.782895 0.000000 0.000000 0.000000 0.000000 0.000000 0.000000 0.037732 0.110383 -30.653826 -0.000000 0.000000 0.000000 -2.995329 10.233412 -1.790157 0.000000 0.000000 0.000000 0.037732 0.110383 -30.653826 0.409220 -1.297791 0.060902 -0.500746 4.478800 0.074929 0.000000 0.000000 0.000000
43.184157 64.427236 240.900860 0.028399 -0.146169 30.766794 0.050370 0.140124 -30.766819 -0.000000 0.000000 0.000000 -0.000000 0.000000 0.000000 0.000000 0.000000 0.000000 10.497492 8.459262 5.008173 -13.586885 -12.017491 -7.291467 -11.379718 45.504636 4.653612 13.143911 -40.443069 6.472129 0.000000 0.000000 0.000000 0.000000 0.000000 0.000000 0.940923 -0.766338 -0.200547 -0.611708 -0.906267 -0.027965 2.637497 -3.601695 2.363916 -6.354806 -1.353339 -2.138782 0.000000 0.000000 0.000000 0.000000 0.000000 0.000000 0.050370 0.140124 -30.766819 -0.000000 0.000000 0.000000 -3.641861 12.397708 -2.117191 0.000000 0.000000 0.000000 0.050370 0.140124 -30.766819 0.445198 -1.413268 0.066805 -3.003737 10.071156 -0.139052 0.000000 0.000000 0.000000
43.200349 64.453935 240.953236 0.031298 -0.175104 30.888249 0.063034 0.166337 -30.888292 -0.000000 0.000000 0.000000 -0.000000 0.000000 0.000000 0.000000 0.000000 0.000000 11.933491 9.708865 5.601552 -15.439099 -13.203584 -8.430624 -13.301039 49.473755 6.154549 14.885518 -44.090478 7.709767 0.000000 0.000000 0.000000 0.000000 0.000000 0.000000 1.130588 -0.938491 -0.242416 -1.083436 -0.805731 -0.049372 3.451383 -3.830953 2.744102 -7.252752 -1.676161 -2.426390 0.000000 0.000000 0.000000 0.000000 0.000000 0.000000 0.063034 0.166337 -30.888292 -0.384163 0.808198 -0.078385 -3.718862 12.992246 -2.301671 0.000000 0.000000 0.000000 0.063034 0.166337 -30.888292 0.433135 -1.377551 0.065032 -7.288568 18.767230 -0.007021 0.000000 0.000000 0.000000
43.221283 64.480586 241.009168 0.038680 -0.207081 30.939067 0.073290 0.197503 -30.939124 -0.000000 0.000000 0.000000 -0.000000 0.000000 0.000000 0.000000 0.000000 0.000000 13.337560 10.953976 6.153455 -16.546769 -13.405983 -9.313870 -11.044017 44.088817 4.516551 12.101908 -39.514016 5.486979 0.000000 0.000000 0.000000 0.000000 0.000000 0.000000 1.377121 -1.089660 -0.283751 -1.996291 -0.497917 -0.099926 4.267469 -4.598242 2.997717 -6.945452 -1.581378 -2.521703 0.000000 0.000000 0.000000 0.000000 0.000000 0.000000 0.073290 0.197503 -30.939124 -0.414078 0.886144 -0.085152 -4.185697 12.998795 -2.446773 0.000000 0.000000 0.000000 0.073290 0.197503 -30.939124 0.191307 -0.873246 0.045745 -20.945993 42.405492 4.771727 0.000000 0.000000 0.000000
43.237880 64.512044 241.059502 0.035418 -0.229296 31.051013 0.087929 0.214708 -31.051107 -0.000000 0.000000 0.000000 -0.000000 0.000000 0.000000 0.000000 0.000000 0.000000 13.726929 11.272231 6.325651 -16.299736 -12.782051 -9.384592 -11.383630 43.949775 4.925231 11.560191 -40.402479 4.715635 0.000000 0.000000 0.000000 0.000000 0.000000 0.000000 1.544055 -1.231523 -0.317946 -2.880282 -0.032714 -0.130213 5.899347 -4.451608 3.536578 -8.613438 -3.039997 -3.014974 0.000000 0.000000 0.000000 0.000000 0.000000 0.000000 0.087929 0.214708 -31.051107 -0.423046 0.951944 -0.089680 -4.413711 11.723643 -2.451745 0.000000 0.000000 0.000000 0.087929 0.214708 -31.051107 -0.000000 0.000000 0.000000 -32.914878 53.662021 11.885884 0.000000 0.000000 0.000000
43.254282 64.554249 241.099994 0.025726 -0.248538 31.248799 0.106937 0.225826 -31.248954 -0.000000 0.000000 0.000000 -0.000000 0.000000 0.000000 0.000000 0.000000 0.000000 13.124829 10.651109 6.158846 -15.843104 -12.700340 -9.051621 -11.248820 44.012067 4.762218 11.769710 -40.011076 5.022518 0.000000 0.000000 0.000000 0.000000 0.000000 0.000000 1.517562 -1.512646 -0.363270 -3.603632 0.486202 -0.159940 7.575848 -3.526345 4.014748 -10.044100 -2.574861 -3.385874 0.000000 0.000000 0.000000 0.000000 0.000000 0.000000 0.106937 0.225826 -31.248954 -0.392258 0.938592 -0.086708 -4.603309 12.676529 -2.549652 0.000000 0.000000 0.000000 0.106937 0.225826 -31.248954 -0.000000 0.000000 0.000000 -38.000620 56.253726 15.008652 0.000000 0.000000 0.000000
43.281125 64.621671 241.123836 0.032299 -0.248776 31.600746 0.102848 0.228812 -31.600881 -0.000000 0.000000 0.000000 -0.000000 0.000000 0.000000 0.000000 0.000000 0.000000 12.447098 9.944052 5.971985 -15.691705 -13.032858 -8.810434 -10.921301 44.136867 4.368764 12.248826 -39.083085 5.732842 0.000000 0.000000 0.000000 0.000000 0.000000 0.000000 1.412743 -1.793003 -0.404168 -3.926091 1.033320 -0.124072 7.631092 -2.701705 3.732141 -9.034787 -2.473039 -3.150725 0.000000 0.000000 0.000000 0.000000 0.000000 0.000000 0.102848 0.228812 -31.600881 -0.370350 0.915182 -0.083760 -3.908343 11.714754 -2.287528 0.000000 0.000000 0.000000 0.102848 0.228812 -31.600881 -0.000000 0.000000 0.000000 -33.400472 51.477524 10.823875 0.000000 0.000000 0.000000
